<svg width="32" height="32" viewBox="0 0 32 32" fill="none" xmlns="http://www.w3.org/2000/svg">
<path d="M16.7061 26.0402C16.3156 26.4307 15.6825 26.4306 15.292 26.0402C14.9015 25.6497 14.9015 25.0167 15.292 24.6261L22.9189 17.0002L6.66504 17.0002L6.56348 16.9953C6.05904 16.9442 5.66504 16.5181 5.66504 16.0002C5.66504 15.4823 6.05904 15.0561 6.56348 15.005L6.66504 15.0002L22.9189 15.0002L15.292 7.3732L15.2227 7.29801C14.9022 6.90523 14.9259 6.32528 15.292 5.95914C15.6581 5.59332 16.2372 5.57049 16.6299 5.89078L16.7061 5.95914L26.0391 15.2931C26.1074 15.3615 26.1656 15.4398 26.2119 15.5255C26.2193 15.5393 26.2257 15.5535 26.2324 15.5675C26.2955 15.6986 26.332 15.845 26.332 16.0002C26.332 16.0971 26.3178 16.1908 26.292 16.2795C26.2907 16.2839 26.2904 16.2887 26.2891 16.2931C26.2742 16.3419 26.2543 16.3885 26.2324 16.4338C26.2133 16.4735 26.1917 16.5125 26.167 16.55C26.1296 16.6066 26.0869 16.6594 26.0391 16.7072L16.7061 26.0402Z" fill="white"/>
</svg>
