<svg width="70" height="50" viewBox="0 0 70 50" fill="none" xmlns="http://www.w3.org/2000/svg">
<g clip-path="url(#clip0_712_1393)">
<path d="M69.9993 40.4619H41.7188L48.069 49.8465H69.9993V40.4619Z" fill="#895AF6"/>
<path d="M70 20H46.3826C46.4638 23.125 43.9478 27.8906 42 30H70V20Z" fill="#895AF6"/>
<path d="M69.9985 0L39.2812 0.0769231C41.9395 1.92308 44.7454 7.38462 44.9669 9.84615H69.9985V0Z" fill="#895AF6"/>
<path d="M0 0.0105171C27.0992 0.0106072 27.2467 0.0114533 29.5359 0.625902C48.5865 5.73929 42.4578 30.1537 31.1603 32.1643L42.9747 49.8566H30.9388L20.5274 33.8566H11.0759V49.8566H0V0.0105171ZM11.1498 9.92308V24.4615L23.3547 24.5274C24.7124 24.5346 26.0847 24.3991 27.3381 23.8557C27.4614 23.8022 27.58 23.7474 27.6899 23.6923C27.7817 23.6462 27.8771 23.5937 27.974 23.5368C29.226 22.8014 30.1195 21.5482 30.6435 20.1538C31.0065 19.188 31.0865 17.5385 31.0865 17.5385C31.0865 17.5385 31.1118 15.3955 30.6435 14.1538C30.5238 13.8367 30.3407 13.4952 30.1382 13.1669C29.4374 12.0306 28.3278 11.2628 27.1361 10.7308C25.9425 10.1979 24.6574 9.92309 23.3589 9.92308H11.1498Z" fill="white"/>
</g>
<defs>
<clipPath id="clip0_712_1393">
<rect width="70" height="50" fill="white"/>
</clipPath>
</defs>
</svg>
