<svg width="21" height="20" viewBox="0 0 21 20" fill="none" xmlns="http://www.w3.org/2000/svg">
<path fill-rule="evenodd" clip-rule="evenodd" d="M1.8749 8.60987C7.24359 5.78741 10.8236 3.92667 12.6148 3.02765C17.7292 0.460774 18.7919 0.0148807 19.4846 0.000156987C19.6369 -0.00308132 19.9776 0.0424773 20.1982 0.25852C20.3845 0.440943 20.4358 0.687369 20.4603 0.860326C20.4848 1.03328 20.5154 1.42728 20.4911 1.73514C20.214 5.249 19.0147 13.7762 18.4046 17.7118C18.1465 19.3771 17.6382 19.9354 17.1461 19.9901C16.0766 20.1088 15.2645 19.1372 14.2287 18.3179C12.6078 17.0358 11.6921 16.2377 10.1188 14.9867C8.30053 13.5408 9.47923 12.7462 10.5154 11.4475C10.7866 11.1076 15.4987 5.93584 15.5899 5.46668C15.6013 5.40801 15.6119 5.18929 15.5042 5.0738C15.3965 4.95831 15.2376 4.9978 15.1229 5.02921C14.9604 5.07373 12.371 7.1389 7.35486 11.2247C6.61988 11.8337 5.95416 12.1304 5.3577 12.1149C4.70015 12.0977 3.43528 11.6663 2.49498 11.2974C1.34166 10.8451 0.425027 10.6059 0.504845 9.83761C0.546419 9.43745 1.0031 9.0282 1.8749 8.60987Z" fill="white"/>
</svg>
